<svg width="222" height="162" viewBox="0 0 222 162" fill="none" xmlns="http://www.w3.org/2000/svg">
<g clip-path="url(#clip0_4_1041)">
<rect width="222" height="162" fill="white"/>
<path d="M120.682 52.1781C121.056 52.7761 121.395 53.3981 121.73 54.0201C122.281 53.6901 122.836 53.3731 123.395 53.0721C122.989 52.4681 122.586 51.8591 122.232 51.2251C121.776 51.5051 121.256 51.8251 120.682 52.1781Z" fill="white"/>
<path d="M118.987 53.222C119.365 53.827 119.706 54.457 120.046 55.085C120.51 54.776 120.978 54.475 121.45 54.187C121.057 53.602 120.665 53.015 120.311 52.406C119.892 52.664 119.449 52.937 118.987 53.222Z" fill="white"/>
<path d="M116.926 54.4969C117.329 55.1449 117.69 55.8199 118.054 56.4919C118.622 56.0659 119.196 55.6559 119.777 55.2629C119.377 54.6679 118.977 54.0699 118.615 53.4519C118.073 53.7859 117.508 54.1359 116.926 54.4969Z" fill="white"/>
<path d="M122.615 50.989C122.609 50.993 122.602 50.998 122.595 51.002C122.996 51.617 123.351 52.264 123.701 52.913C124.17 52.666 124.642 52.429 125.116 52.202C124.681 51.554 124.242 50.905 123.851 50.23C123.498 50.447 123.084 50.702 122.615 50.989Z" fill="white"/>
<path d="M125.012 49.5111C124.857 49.6091 124.584 49.7781 124.221 50.0021C124.642 50.6711 125.017 51.3721 125.394 52.0681C125.992 51.7891 126.594 51.5261 127.199 51.2801C126.707 50.5421 126.201 49.8081 125.763 49.0381C125.512 49.1961 125.265 49.3521 125.012 49.5111Z" fill="white"/>
<path d="M127.899 47.6951C127.315 48.0621 126.724 48.4331 126.127 48.8091C126.615 49.5711 127.036 50.3771 127.47 51.1711C128.179 50.8881 128.892 50.6291 129.608 50.3931C129.027 49.5121 128.407 48.646 127.904 47.718C127.9 47.711 127.901 47.7031 127.899 47.6951Z" fill="white"/>
<path d="M111.271 58.024C111.861 58.987 112.41 59.979 112.964 60.964C113.467 60.448 113.984 59.942 114.516 59.448C113.984 58.629 113.451 57.808 112.951 56.97C112.39 57.321 111.828 57.673 111.271 58.024Z" fill="white"/>
<path d="M113.325 56.7361C113.823 57.5521 114.294 58.3881 114.761 59.2231C115.207 58.8151 115.661 58.4141 116.127 58.0221C116.118 58.0161 116.11 58.0101 116.103 58.0011C115.639 57.2941 115.15 56.5971 114.712 55.8711C114.253 56.1571 113.79 56.4461 113.325 56.7361Z" fill="white"/>
<path d="M115.09 55.636C115.528 56.36 115.918 57.1171 116.327 57.8571C116.528 57.6901 116.729 57.5221 116.933 57.3581C117.223 57.1251 117.515 56.898 117.808 56.675C117.379 56.033 116.944 55.3921 116.554 54.7271C116.074 55.0241 115.585 55.328 115.09 55.636Z" fill="white"/>
<path d="M158.301 11.5701C157.997 11.2051 157.788 10.7581 157.667 10.2961C157.656 10.2551 157.658 10.2191 157.658 10.1841C156.511 10.7741 155.374 11.3911 154.251 12.0321C154.671 12.4221 155.105 12.8061 155.509 13.2151L158.301 11.5701Z" fill="white"/>
<path d="M106.009 101.127C105.999 101.11 105.989 101.094 105.979 101.077C105.976 101.085 105.972 101.093 105.969 101.101C105.982 101.11 105.995 101.119 106.009 101.127Z" fill="white"/>
<path d="M120.864 113.444C121.148 113.752 121.439 114.075 121.724 114.415C124.249 115.639 127.111 116.589 130.423 117.287C140.256 119.359 150.78 117.199 159.297 111.36C167.254 105.905 172.448 97.912 173.922 88.854C175.129 81.431 173.598 73.707 169.611 67.105C168.249 64.851 166.617 62.75 164.759 60.859C160.044 56.059 153.99 52.445 147.71 50.68C138.074 47.971 126.812 50.77 117.583 58.168C116.781 58.811 116.009 59.481 115.263 60.172C115.255 60.234 115.2 60.28 115.139 60.286C107.062 67.824 102.453 77.969 102.97 87.41C103.238 92.299 104.693 96.962 107.294 101.268C107.562 101.713 107.846 102.149 108.137 102.582C110.122 103.971 112.061 105.427 113.936 106.964C112.012 105.07 110.343 102.974 108.984 100.725C106.506 96.622 105.12 92.176 104.865 87.513C104.325 77.671 109.619 67.043 118.681 59.779C127.421 52.772 138.117 50.128 147.292 52.707C153.233 54.377 158.96 57.795 163.418 62.332C165.181 64.128 166.731 66.123 168.023 68.262C171.814 74.539 173.269 81.885 172.121 88.948C170.721 97.553 165.793 105.142 158.245 110.316C150.186 115.841 140.223 117.884 130.912 115.923C126.905 115.079 123.571 113.85 120.719 112.166C119.488 111.44 118.311 110.646 117.193 109.792C118.459 110.959 119.689 112.169 120.864 113.444Z" fill="white"/>
<path d="M127.366 117.611L127.361 117.609C127.361 117.611 127.362 117.613 127.362 117.615L127.366 117.611Z" fill="white"/>
<path d="M129.505 46.689C130.141 47.731 130.728 48.807 131.329 49.868C131.911 49.707 132.494 49.563 133.078 49.433C133.076 49.43 133.073 49.428 133.07 49.424C132.316 48.246 131.529 47.076 130.824 45.866C130.387 46.138 129.948 46.412 129.505 46.689Z" fill="white"/>
<path d="M128.24 47.4811C128.248 47.4881 128.258 47.4921 128.264 47.5011C128.86 48.3911 129.344 49.3591 129.862 50.2961C129.865 50.3011 129.864 50.3051 129.865 50.3091C130.26 50.1821 130.656 50.0611 131.052 49.9481C130.406 48.9461 129.743 47.9471 129.131 46.9231C128.834 47.1091 128.54 47.2931 128.24 47.4811Z" fill="white"/>
<path d="M159.103 11.0979L161.706 9.5639C161.539 9.1679 161.392 8.7609 161.256 8.3689C160.686 8.6809 160.105 8.96591 159.532 9.24591L159.152 9.43091C158.826 9.59091 158.503 9.7569 158.179 9.9209C158.246 9.9599 158.306 10.0169 158.343 10.1059C158.513 10.5139 158.788 10.8189 159.103 11.0979Z" fill="white"/>
<path d="M60.4851 87.2031C60.4991 87.0751 60.5152 86.9471 60.5302 86.8191C60.4942 86.9431 60.4632 87.0681 60.4312 87.1921C60.4492 87.1971 60.4681 87.1981 60.4851 87.2031Z" fill="white"/>
<path d="M76.8638 58.918C76.6488 58.997 76.4378 59.064 76.2288 59.125C76.3158 59.141 76.4037 59.159 76.4897 59.176C76.6147 59.089 76.7398 59.003 76.8638 58.918Z" fill="white"/>
<path d="M73.0601 58.6221C73.0311 58.6241 73.0031 58.6251 72.9751 58.6271C73.0021 58.6301 73.0291 58.6331 73.0571 58.6371C73.0581 58.6321 73.0591 58.6271 73.0601 58.6221Z" fill="white"/>
<path d="M155.253 37.378C155.465 37.429 155.713 37.436 156.058 37.399C156.821 37.318 157.379 37.087 157.716 36.713C158.018 36.377 158.14 35.919 158.188 35.594C158.286 34.938 158.178 34.308 157.884 33.821C157.57 33.304 157.043 32.964 156.504 32.928C155.966 32.892 155.404 33.142 154.877 33.417C154.59 33.567 154.272 33.747 154.134 33.99C154.055 34.128 154.019 34.315 153.991 34.495C153.883 35.205 153.928 35.815 154.124 36.307C154.338 36.843 154.781 37.264 155.253 37.378Z" fill="white"/>
<path d="M126.338 118.566C126.138 118.687 125.938 118.809 125.739 118.93C125.746 118.946 125.748 118.964 125.753 118.981C125.949 118.844 126.144 118.706 126.338 118.566Z" fill="white"/>
<path d="M99.1708 51.3789C99.6298 49.3549 100.087 47.3309 100.548 45.3079C100.972 43.4469 101.219 41.3939 101.896 39.6059C102.428 38.1979 103.448 37.4459 104.702 36.6659C106.387 35.6189 108.147 34.7139 109.918 33.8219C113.332 32.1009 116.736 30.3519 120.18 28.6919C120.323 28.6229 120.454 28.7699 120.416 28.8839C122.321 29.2139 124.218 29.5959 126.117 29.9619C127.92 30.3089 129.837 30.5119 131.591 31.0519C132.006 31.1799 132.285 31.5439 132.514 31.8889C133.072 32.7269 133.629 33.5649 134.186 34.4029C135.208 35.9389 136.229 37.4749 137.25 39.0109C137.427 39.2749 137.052 39.5239 136.844 39.3369C133.322 41.4749 129.751 43.5369 126.179 45.5969C126.234 45.8109 125.951 45.9749 125.773 45.8309C117.651 50.5139 109.535 55.2059 101.986 60.7899C102.04 61.0669 101.647 61.2829 101.512 60.9959C101.5 60.9699 101.488 60.9439 101.475 60.9169C101.438 60.8759 101.413 60.8249 101.404 60.7669C100.579 59.0179 99.7418 57.2719 98.9388 55.5119C98.3228 54.1619 98.8618 52.7419 99.1708 51.3789ZM100.232 62.2879C100.514 62.7549 100.77 63.1979 101.006 63.6269C102.544 62.3039 107.422 59.1049 122.072 50.1039C123.27 49.3679 124.124 48.8429 124.458 48.6329C125.931 47.7029 127.361 46.8049 128.761 45.9289C128.773 45.9209 128.784 45.9129 128.797 45.9069C131.611 44.1459 134.299 42.4799 136.922 40.8699C137.208 40.6949 137.469 40.5399 137.706 40.4009C138.498 39.9329 139.021 39.6249 139.061 39.3299C139.108 38.9739 138.704 38.2449 138.302 37.5769L138.23 37.4589C137.536 36.3109 136.699 34.9609 135.894 33.6899C135.427 33.5449 135.109 33.0379 135.162 32.5439C134.264 31.1469 133.485 29.9769 133.114 29.4969C132.607 28.8439 128.348 28.0449 125.529 27.5159C123.773 27.1859 122.114 26.8749 120.839 26.5559C120.547 26.4829 120.217 26.3999 119.939 26.4359C119.653 26.4739 119.355 26.6439 119.067 26.8089C117.606 27.6429 116.114 28.4689 114.67 29.2679C110.334 31.6669 105.849 34.1489 101.761 37.1379C101.14 37.5919 100.638 37.9809 100.307 38.4979C99.9888 38.9949 99.8348 39.6219 99.6858 40.2279L95.9358 55.5609C96.6588 56.8099 97.4668 58.0249 98.2488 59.2029C98.9118 60.2029 99.5968 61.2369 100.232 62.2879Z" fill="white"/>
<path d="M152.964 34.339C153.004 34.073 153.068 33.764 153.23 33.476C153.51 32.987 153.979 32.714 154.397 32.496C155.057 32.151 155.779 31.839 156.573 31.892C157.444 31.95 158.286 32.481 158.769 33.278C159.192 33.978 159.349 34.8529 159.215 35.7479C159.116 36.4159 158.864 36.99 158.487 37.409C157.974 37.978 157.193 38.322 156.168 38.432C155.852 38.466 155.436 38.491 155.01 38.388C154.36 38.231 153.767 37.777 153.383 37.141C153.297 36.998 153.222 36.8469 153.159 36.6919C152.894 36.0259 152.828 35.235 152.964 34.339ZM154.795 38.658C155.138 38.741 155.531 38.752 156.071 38.694C157.265 38.567 158.145 38.1979 158.686 37.5969C159.074 37.1659 159.337 36.549 159.447 35.81C159.601 34.78 159.429 33.788 158.963 33.016C158.458 32.183 157.6 31.633 156.723 31.575C155.865 31.518 154.993 31.902 154.179 32.326C153.702 32.576 153.216 32.853 152.978 33.272C152.84 33.513 152.78 33.816 152.736 34.107C152.569 35.204 152.641 36.15 152.949 36.92C153.295 37.789 154.016 38.47 154.795 38.658Z" fill="white"/>
<path d="M142.817 29.166C142.464 29.362 142.113 29.562 141.759 29.756C141.753 29.787 141.741 29.816 141.732 29.845C141.998 29.679 142.269 29.509 142.534 29.344C142.629 29.284 142.722 29.226 142.817 29.166Z" fill="white"/>
<path d="M77.8987 59.4741C79.0757 59.7441 80.2447 60.0721 81.3937 60.4681C82.4147 59.8681 83.4377 59.2711 84.4337 58.6551C87.0347 57.0461 89.6137 55.4011 92.1697 53.7211C92.1417 53.6791 92.1137 53.6401 92.0887 53.6111C92.0517 53.6311 92.0117 53.6561 91.9817 53.6751C91.9287 53.7061 91.8787 53.7371 91.8317 53.7621C90.4387 54.5011 89.0947 55.3861 87.7957 56.2421C87.0957 56.7031 86.3947 57.1651 85.6817 57.6091C85.4467 57.7551 85.1387 57.6921 84.9807 57.4651C84.9057 57.3581 84.8257 57.2301 84.7397 57.0931C84.4827 56.6841 84.0527 55.9991 83.7127 56.0131C83.4957 56.0221 83.2497 56.1351 83.0367 56.2401C82.2267 56.6401 81.4357 57.1501 80.7387 57.6011C79.8577 58.1701 78.8847 58.8051 77.8987 59.4741Z" fill="white"/>
<path d="M162.433 9.13699C162.86 8.88899 163.25 8.69999 163.607 8.56299C163.417 8.13599 163.191 7.706 162.951 7.302C162.567 7.588 162.165 7.84601 161.754 8.08701C161.984 8.42401 162.218 8.77599 162.433 9.13699Z" fill="white"/>
<path d="M165.252 9.31201C165.253 9.36101 165.245 9.40899 165.229 9.45599C165.297 9.41999 165.365 9.38399 165.432 9.34799C165.374 9.33199 165.313 9.32001 165.252 9.31201Z" fill="white"/>
<path d="M108.125 119.822C108.215 119.858 108.305 119.894 108.395 119.929C108.25 119.826 108.106 119.721 107.96 119.619C107.96 119.63 107.961 119.642 107.959 119.653C108.014 119.709 108.071 119.764 108.125 119.822Z" fill="white"/>
<path d="M123.332 116.867C123.329 116.865 123.327 116.863 123.324 116.862L123.325 116.865C123.327 116.866 123.33 116.866 123.332 116.867Z" fill="white"/>
<path d="M100.164 115.347L100.163 115.344C100.16 115.332 100.162 115.322 100.161 115.311C100.128 115.258 100.095 115.206 100.063 115.154C100.058 115.152 100.054 115.15 100.05 115.148C100.061 115.19 100.066 115.233 100.057 115.274C100.093 115.299 100.129 115.321 100.164 115.347Z" fill="white"/>
<path d="M97.7548 114.18C97.7388 114.173 97.7218 114.167 97.7058 114.161L97.7408 114.22C97.7428 114.206 97.7498 114.193 97.7548 114.18Z" fill="white"/>
<path d="M104.428 118.25C104.742 118.389 105.056 118.528 105.372 118.666C105.377 118.652 105.379 118.639 105.386 118.626C105.273 118.56 105.161 118.492 105.047 118.426C104.874 118.353 104.703 118.276 104.533 118.198C104.504 118.224 104.468 118.242 104.428 118.25Z" fill="white"/>
<path d="M149.95 14.6541C149.01 15.2651 148.084 15.8931 147.17 16.5361L147.797 17.7641C147.916 17.6901 148.035 17.6171 148.156 17.5461L150.675 16.0621C150.525 15.8121 150.402 15.5431 150.264 15.2881C150.199 15.1691 150.058 14.8281 149.95 14.6541Z" fill="white"/>
<path d="M151.468 15.5951L154.747 13.6631C154.385 13.2371 154.042 12.7911 153.688 12.3601C152.628 12.9761 151.58 13.6151 150.546 14.2741C150.658 14.4231 150.752 14.5931 150.851 14.7331C151.052 15.0181 151.281 15.2971 151.468 15.5951Z" fill="white"/>
<path d="M-64.4714 249.313C-65.4444 246.163 -66.3624 242.996 -67.2754 239.829C-67.3394 239.61 -67.3994 239.393 -67.4604 239.175C-68.3554 235.228 -68.9374 230.997 -68.8334 226.677C-68.7484 225.992 -68.6344 225.3 -68.4824 224.596C-68.4324 224.362 -68.5374 224.189 -68.6934 224.099C-68.6344 223.452 -68.5614 222.803 -68.4674 222.154C-68.4634 222.128 -68.4704 222.104 -68.4714 222.078C-67.0144 221.008 -65.6414 219.928 -64.2954 218.866C-61.4064 216.586 -58.6554 214.416 -55.2794 212.492C-55.3084 212.577 -55.3424 212.66 -55.3674 212.748C-55.6354 213.684 -55.6264 214.636 -55.5894 215.693C-54.9144 235.086 -49.4134 254.378 -39.6804 271.485C-39.6154 271.6 -39.5304 271.747 -39.4284 271.916C-38.9544 272.702 -38.0914 273.941 -36.9054 274.454C-40.9264 276.529 -44.8034 278.876 -48.5724 281.393C-55.1754 271.407 -60.5214 260.616 -64.4714 249.313ZM-54.3684 213.034C-53.7764 210.965 -51.7424 209.841 -49.4204 209.025C-49.5074 209.154 -49.5834 209.288 -49.6514 209.426C-51.0874 210.91 -50.3684 214.195 -50.0354 216.088C-49.9124 216.786 -49.7894 217.484 -49.6674 218.183C-48.7414 226.556 -46.9814 234.892 -45.2664 242.997C-44.7024 245.664 -44.1194 248.421 -43.2344 251.074C-42.4374 253.46 -41.4024 255.746 -40.2444 257.965C-38.9194 261.093 -37.0574 263.964 -35.0624 266.754C-34.0124 268.423 -32.7274 270.198 -30.7854 270.551C-30.6954 270.568 -30.6004 270.576 -30.5064 270.584C-31.7434 271.524 -33.0414 272.385 -34.3904 273.145C-34.8234 273.389 -35.2484 273.612 -35.6814 273.645C-36.6964 273.725 -37.7164 272.845 -38.7774 270.971C-48.4274 254.01 -53.8814 234.883 -54.5514 215.657C-54.5844 214.689 -54.5944 213.824 -54.3684 213.034ZM72.5856 112.47C72.4396 112.297 72.3816 112.034 72.4236 111.771C72.4656 111.507 72.6056 111.278 72.7966 111.157C73.0386 111.005 73.3707 110.957 73.7487 110.914C77.8987 110.438 82.1307 110.526 86.3007 111.133C86.3117 111.163 86.3256 111.193 86.3436 111.224C86.5476 111.561 86.9486 111.493 87.1466 111.263C90.2126 111.762 93.2377 112.542 96.1677 113.586L97.0557 115.109C97.0747 115.141 97.0936 115.173 97.1116 115.205C95.2806 114.56 93.4096 114.036 91.4896 113.745C89.6336 113.464 87.7386 113.402 85.8956 113.343L72.6887 112.919C72.7237 112.767 72.6916 112.601 72.5856 112.47ZM97.7546 114.18C97.7496 114.193 97.7427 114.206 97.7407 114.22L97.7056 114.161C97.7216 114.167 97.7386 114.173 97.7546 114.18ZM100.05 115.148C100.054 115.15 100.058 115.152 100.063 115.154C100.095 115.206 100.128 115.258 100.161 115.311C100.162 115.322 100.16 115.332 100.163 115.344L100.164 115.347C100.129 115.321 100.093 115.299 100.057 115.274C100.066 115.233 100.061 115.19 100.05 115.148ZM105.386 118.626C105.379 118.639 105.377 118.652 105.372 118.666C105.056 118.528 104.742 118.389 104.428 118.25C104.468 118.242 104.504 118.224 104.533 118.198C104.703 118.276 104.874 118.353 105.047 118.426C105.161 118.492 105.273 118.56 105.386 118.626ZM108.395 119.929C108.305 119.894 108.215 119.858 108.125 119.822C108.071 119.764 108.014 119.709 107.959 119.653C107.961 119.642 107.96 119.63 107.96 119.619C108.106 119.721 108.25 119.826 108.395 119.929ZM60.5297 86.819C60.5147 86.947 60.4986 87.075 60.4846 87.203C60.4676 87.198 60.4487 87.197 60.4307 87.192C60.4627 87.068 60.4937 86.943 60.5297 86.819ZM73.0596 58.622C73.0586 58.627 73.0576 58.632 73.0566 58.637C73.0286 58.633 73.0016 58.63 72.9746 58.627C73.0026 58.625 73.0306 58.624 73.0596 58.622ZM76.8636 58.918C76.7396 59.003 76.6146 59.089 76.4896 59.176C76.4036 59.159 76.3156 59.141 76.2286 59.125C76.4376 59.064 76.6486 58.997 76.8636 58.918ZM-13.7574 193.437C-12.7744 192.944 -11.7954 192.461 -10.8244 191.981C-3.99837 188.614 2.44963 185.433 7.97263 179.997C14.7116 173.364 19.9346 165.34 22.6806 157.404C27.4066 143.742 27.7856 130.818 28.1866 117.135C28.2246 115.831 28.2626 114.516 28.3056 113.191C28.5246 106.341 28.8686 99.061 30.4176 91.986C32.4026 82.918 34.5216 72.405 36.3906 63.128L37.0326 59.943C37.5786 57.24 47.3986 52.625 56.2916 49.482C59.3076 48.416 62.4256 47.314 65.7476 47.766C67.0306 47.94 68.3476 48.264 69.6216 48.577C71.3226 48.995 73.0807 49.428 74.8607 49.54C75.5057 49.58 76.1496 49.549 76.7726 49.52C77.5076 49.485 78.2026 49.452 78.8936 49.528C79.9816 49.646 81.2936 50.167 81.7126 51.273C82.0686 52.214 81.9737 53.186 81.4307 54.161C81.1977 54.579 80.8857 54.981 80.5247 55.362C80.3667 55.338 80.1966 55.357 80.0226 55.439C73.1396 58.669 65.2067 56.213 57.9807 57.846C49.3947 59.784 44.8046 69.915 41.8706 77.291C41.7726 77.536 41.8796 77.763 42.0486 77.887C41.9906 77.995 41.9306 78.103 41.8736 78.211C41.7846 78.379 41.7966 78.572 41.8876 78.723C41.9356 78.801 42.0026 78.869 42.0886 78.913C42.3426 79.048 42.6566 78.952 42.7916 78.698C45.0696 74.409 47.5696 70.173 50.2236 66.108C51.5556 64.071 52.9106 62.138 54.7546 60.84C56.0256 60.1 57.4136 59.55 58.9396 59.198C60.8056 58.887 62.8426 58.942 65.0276 59.057C71.7376 59.41 80.0876 59.848 86.5836 64.124C92.9036 68.284 95.8646 72.549 100.555 79.728C100.855 80.197 100.897 80.89 100.657 81.51C100.487 81.948 100.084 82.323 99.3516 82.726C96.0556 84.538 91.6956 84.423 88.4996 82.44C87.7606 81.981 87.0566 81.418 86.3756 80.872C85.6716 80.309 84.9436 79.725 84.1526 79.233C83.9236 79.091 83.7036 78.949 83.4866 78.809C82.6056 78.085 81.6986 77.419 80.7236 76.903C78.3576 75.651 75.5496 75.005 72.8036 74.986C72.7606 74.976 72.7176 74.968 72.6746 74.957C70.5766 74.512 68.4076 74.048 66.4496 73.478C66.3446 73.448 66.2386 73.452 66.1426 73.484C66.0696 73.452 65.9966 73.423 65.9236 73.387C65.3056 73.067 64.8717 72.588 64.3947 72.103C64.1997 71.905 63.7826 72.122 63.9016 72.4C64.4296 73.625 65.7796 74.607 67.1246 74.796L65.4946 77.007C63.7356 78.301 62.4856 80.145 61.6606 82.236C61.2486 82.83 60.8536 83.44 60.5126 84.087C59.3656 86.258 58.8446 88.802 59.0446 91.251C59.1096 92.023 59.2787 92.636 59.5587 93.099C59.6647 93.274 59.7876 93.426 59.9246 93.559C59.9196 93.578 59.9136 93.596 59.9096 93.615C59.8906 93.741 59.9176 93.862 59.9786 93.963C60.0556 94.09 60.1856 94.183 60.3436 94.207C64.8586 94.906 69.6016 94.694 74.4376 93.577C75.3476 93.366 76.2736 93.123 77.1696 92.887C80.6396 91.974 84.2286 91.03 87.6466 91.835C89.7966 92.343 91.7496 93.513 93.6396 94.646C102.963 100.235 112.605 106.015 120.1 114.148C121.157 115.295 122.319 116.654 122.732 118.268C123.081 119.637 122.732 121.5 121.397 122.256C121.334 122.292 121.282 122.338 121.241 122.392C120.312 122.264 119.348 122.226 118.425 122.191C118.112 122.179 117.802 122.168 117.5 122.153C115.478 122.052 113.5 121.635 111.558 121.042C111.543 121.026 111.529 121.01 111.512 120.995C100.965 112.381 87.1576 108.331 73.6306 109.882C73.1436 109.938 72.6697 110.01 72.2437 110.278C71.7967 110.559 71.4886 111.044 71.3976 111.606C71.3246 112.062 71.4067 112.512 71.6187 112.884L68.3687 112.78C68.0827 112.77 67.8426 112.995 67.8326 113.282C67.8226 113.569 68.0486 113.809 68.3356 113.818L85.8716 114.381C87.6746 114.439 89.5386 114.5 91.3336 114.772C95.4516 115.395 99.4016 117.152 103.221 118.85C107.743 120.861 112.418 122.94 117.448 123.19C117.754 123.205 118.068 123.217 118.386 123.229C120.943 123.325 123.587 123.423 124.747 125.333L124.75 125.338C125.425 126.455 125.334 128.076 124.525 129.374C123.916 130.35 122.942 131.182 121.625 131.854C121.512 131.798 121.371 131.794 121.222 131.882C120.76 132.154 120.293 132.392 119.824 132.605C115.134 134.197 110.103 133.266 104.802 132.283C101.678 131.704 98.4476 131.105 95.2856 131.07C93.3206 131.048 91.2767 131.262 89.3007 131.469C86.6657 131.745 83.9526 132.029 81.3906 131.755C80.2236 130.648 79.1116 129.503 78.1326 128.214C77.9046 127.914 77.4296 128.181 77.6216 128.523C78.2676 129.671 79.0196 130.747 79.9036 131.71C79.8266 131.769 79.7617 131.845 79.7277 131.942L78.1807 136.323C78.0367 136.734 77.8877 137.158 77.6547 137.5C77.3427 137.959 76.8496 138.316 76.3716 138.66L73.6967 140.594C73.2297 140.803 72.7556 140.999 72.2716 141.18C71.4606 141.484 71.6826 142.663 72.4056 142.686C71.5636 146.028 71.1036 149.458 71.0356 152.903C71.0146 153.997 71.0327 155.106 71.0507 156.18C71.0827 158.087 71.1147 160.06 70.9207 161.974C70.2807 168.282 67.1467 174.258 64.3817 179.53C64.2947 179.697 64.3066 179.89 64.3976 180.041C64.4446 180.119 64.5136 180.186 64.6006 180.231C64.8546 180.365 65.1686 180.267 65.3016 180.013C68.1106 174.657 71.2936 168.587 71.9536 162.078C72.1536 160.104 72.1206 158.1 72.0886 156.163C72.0716 155.099 72.0536 153.999 72.0746 152.923C72.1446 149.345 72.6536 145.785 73.5776 142.326C75.7856 141.5 78.1546 140.318 79.8706 138.815C80.3676 138.379 80.7476 137.919 81.0396 137.433C82.1806 139.262 83.3246 141.088 84.4746 142.909C84.4016 142.832 84.3306 142.753 84.2556 142.676C84.2426 142.663 84.2336 142.648 84.2206 142.635C83.7786 144.09 83.3817 145.562 82.9807 147.059C82.2007 149.97 81.3936 152.981 80.1566 156.101L69.7877 182.256C68.7907 184.769 67.7606 187.367 66.3976 189.731C61.1476 198.837 51.4256 204.15 42.0236 209.289C41.3256 209.67 40.6316 210.05 39.9406 210.43C39.4346 210.708 38.9186 210.998 38.3976 211.296C38.3666 211.238 38.3216 211.183 38.2586 211.134C37.4876 210.541 36.6616 210.038 35.8436 209.512C34.1336 208.411 33.4466 207.078 32.9266 205.159C32.8416 204.848 32.3226 204.91 32.3566 205.242C32.4856 206.498 32.6466 207.875 33.5076 208.874C34.5546 210.088 35.9796 211.074 37.3696 211.889C36.5776 212.352 35.7686 212.835 34.9446 213.338C34.9216 213.141 34.8016 212.954 34.5586 212.881C32.3866 212.229 30.4606 210.968 29.2486 209.015C29.0546 208.703 28.5836 208.989 28.7616 209.308C29.9666 211.467 31.7176 213.101 34.0836 213.867C15.6776 225.259 -10.1104 246.103 -33.5304 265.704C-38.1844 257.883 -41.6504 249.476 -43.8624 240.627C-45.0824 235.745 -45.8954 230.751 -46.8414 225.811C-47.2924 223.46 -47.7564 221.112 -48.2174 218.763C-48.3224 218.227 -48.5674 217.36 -48.8104 216.367C-48.9134 215.302 -49.0044 214.238 -49.0754 213.174C-49.0974 212.856 -49.1144 212.528 -49.1184 212.201C-37.4544 205.672 -25.6344 199.392 -13.7574 193.437ZM83.0366 56.24C83.2496 56.135 83.4956 56.022 83.7126 56.013C84.0526 55.999 84.4826 56.684 84.7396 57.093C84.8256 57.23 84.9057 57.358 84.9807 57.465C85.1387 57.692 85.4466 57.755 85.6816 57.609C86.3946 57.165 87.0957 56.703 87.7957 56.242C89.0947 55.386 90.4386 54.501 91.8316 53.762C91.8786 53.737 91.9286 53.706 91.9816 53.675C92.0116 53.656 92.0516 53.631 92.0886 53.611C92.1136 53.64 92.1416 53.679 92.1696 53.721C89.6136 55.401 87.0347 57.046 84.4337 58.655C83.4377 59.271 82.4146 59.868 81.3936 60.468C80.2446 60.072 79.0756 59.744 77.8986 59.474C78.8846 58.805 79.8576 58.17 80.7386 57.601C81.4356 57.15 82.2266 56.64 83.0366 56.24ZM92.3026 61.995C92.9346 62.501 93.4736 63.079 93.9036 63.778C94.1126 64.116 94.6136 63.808 94.4286 63.461C94.0476 62.749 93.5566 62.119 92.9606 61.584C93.6136 61.176 94.2867 60.756 94.9807 60.322C95.4047 60.913 95.9216 61.447 96.4876 61.885C96.7826 62.112 97.1676 61.73 96.8926 61.457C96.4066 60.975 95.9966 60.469 95.6226 59.922C96.0536 59.652 96.4916 59.378 96.9376 59.1C97.0856 59.325 97.2356 59.555 97.3826 59.777C98.0396 60.768 98.7187 61.793 99.3427 62.825C99.3447 62.828 99.3457 62.83 99.3477 62.833C98.4787 63.365 97.6916 64.045 97.0486 64.831C96.9526 64.948 96.9126 65.102 96.9396 65.251C97.5756 68.802 98.3507 72.346 99.2407 75.861C95.9467 70.985 93.1756 67.548 88.6396 64.281C88.6786 64.256 88.7156 64.233 88.7546 64.209C88.8166 64.179 88.8766 64.142 88.9326 64.098C89.2546 63.897 89.5846 63.691 89.9236 63.48C90.3006 63.937 90.6476 64.416 90.9636 64.947C91.1746 65.302 91.6506 64.981 91.4956 64.626C91.2576 64.085 90.9556 63.551 90.5986 63.059C91.1486 62.716 91.7136 62.363 92.3026 61.995ZM99.6856 40.228C99.8346 39.622 99.9886 38.995 100.307 38.498C100.638 37.981 101.14 37.592 101.761 37.138C105.849 34.149 110.334 31.667 114.67 29.268C116.114 28.469 117.606 27.643 119.067 26.809C119.355 26.644 119.653 26.474 119.939 26.436C120.217 26.4 120.547 26.483 120.839 26.556C122.114 26.875 123.773 27.186 125.529 27.516C128.348 28.045 132.607 28.844 133.114 29.497C133.485 29.977 134.264 31.147 135.162 32.544C135.109 33.038 135.427 33.545 135.894 33.69C136.699 34.961 137.536 36.311 138.23 37.459L138.302 37.577C138.704 38.245 139.108 38.974 139.061 39.33C139.021 39.625 138.498 39.933 137.706 40.401C137.469 40.54 137.208 40.695 136.922 40.87C134.299 42.48 131.611 44.146 128.797 45.907C128.784 45.913 128.773 45.921 128.761 45.929C127.361 46.805 125.931 47.703 124.458 48.633C124.124 48.843 123.27 49.368 122.072 50.104C107.422 59.105 102.544 62.304 101.006 63.627C100.77 63.198 100.514 62.755 100.232 62.288C99.5966 61.237 98.9117 60.203 98.2487 59.203C97.4667 58.025 96.6586 56.81 95.9356 55.561L99.6856 40.228ZM138.49 33.101C139.04 33.551 139.557 34.023 140.038 34.585C140.257 34.841 140.69 34.488 140.498 34.215C140.118 33.672 139.668 33.141 139.164 32.679C139.956 32.183 140.741 31.692 141.525 31.201C141.832 31.523 142.168 31.819 142.514 32.095C142.8 32.322 143.194 31.924 142.91 31.676C142.613 31.416 142.35 31.134 142.101 30.84C142.428 30.635 142.76 30.427 143.085 30.224C148.835 26.624 154.3 23.203 159.034 20.24C159.794 21.026 160.465 21.857 161.024 22.831C161.209 23.154 161.68 22.86 161.513 22.535C161.021 21.573 160.406 20.645 159.663 19.847C160.552 19.291 161.41 18.753 162.241 18.233C163.095 19.17 163.966 20.091 164.829 21.019C165.077 21.286 165.446 20.881 165.214 20.612C164.421 19.696 163.634 18.773 162.835 17.862C163.504 17.443 164.15 17.039 164.775 16.648C166.013 18.666 167.454 20.563 168.989 22.363C169.191 22.601 169.611 22.264 169.418 22.018C167.964 20.165 166.668 18.232 165.417 16.246C166.108 15.814 166.767 15.401 167.396 15.009C168.331 16.238 169.227 17.488 170.115 18.755C170.327 19.057 170.795 18.782 170.609 18.457C169.842 17.122 168.945 15.849 167.982 14.642C168.578 14.269 169.142 13.916 169.672 13.585C170.843 15.159 172 16.739 173.057 18.396C173.254 18.705 173.723 18.421 173.543 18.102C172.577 16.39 171.533 14.729 170.337 13.17C170.971 12.773 171.55 12.412 172.065 12.089C172.549 12.603 172.987 13.144 173.344 13.77C173.529 14.093 173.977 13.801 173.827 13.479C173.53 12.84 173.16 12.228 172.698 11.695C173.733 11.049 174.453 10.6 174.792 10.39C174.815 10.377 174.827 10.355 174.847 10.339C175.223 10.785 175.58 11.267 175.926 11.751L176.127 12.032C180.115 17.611 183.974 23.012 187.679 28.494C177.999 34.227 166.297 41.178 156.344 47.091C155.523 47.551 154.702 48.015 153.878 48.47C153.734 48.55 153.624 48.647 153.544 48.755L153.541 48.757C153.52 48.769 153.502 48.784 153.484 48.799C149.757 44.885 145.911 41.048 142.001 37.348C141.87 37.225 141.685 37.178 141.511 37.224L139.589 37.734C139.473 37.518 139.341 37.289 139.191 37.041L139.119 36.922C138.588 36.043 137.924 34.966 137.243 33.882C137.66 33.62 138.075 33.361 138.49 33.101ZM141.759 29.756C142.113 29.562 142.464 29.362 142.817 29.166C142.722 29.226 142.629 29.284 142.534 29.344C142.269 29.509 141.998 29.679 141.732 29.845C141.741 29.816 141.753 29.787 141.759 29.756ZM158.179 9.92098C158.503 9.75698 158.826 9.59099 159.152 9.43099L159.532 9.24599C160.105 8.96599 160.686 8.68098 161.256 8.36898C161.392 8.76098 161.539 9.16798 161.706 9.56398L159.103 11.098C158.788 10.819 158.513 10.514 158.343 10.106C158.306 10.017 158.246 9.95998 158.179 9.92098ZM154.251 12.032C155.374 11.391 156.511 10.774 157.658 10.184C157.658 10.219 157.656 10.255 157.667 10.296C157.788 10.758 157.997 11.205 158.301 11.57L155.509 13.215C155.105 12.806 154.671 12.422 154.251 12.032ZM150.675 16.062L148.156 17.546C148.035 17.617 147.916 17.69 147.797 17.764L147.17 16.536C148.084 15.893 149.01 15.265 149.95 14.654C150.058 14.828 150.199 15.169 150.264 15.288C150.402 15.543 150.525 15.812 150.675 16.062ZM150.546 14.274C151.58 13.615 152.628 12.976 153.688 12.36C154.042 12.791 154.385 13.237 154.747 13.663L151.468 15.595C151.281 15.297 151.052 15.018 150.851 14.733C150.752 14.593 150.658 14.423 150.546 14.274ZM146.693 15.603L146.466 15.158C146.352 14.936 146.244 14.725 146.21 14.523C146.011 13.347 147.709 12.486 148.949 11.857C149.216 11.721 149.461 11.597 149.665 11.481C151.836 10.248 153.99 8.918 156.064 7.528C156.267 7.392 156.483 7.241 156.71 7.083C157.992 6.187 159.748 4.96099 161.114 5.20299C161.409 5.25599 161.889 5.744 162.381 6.428C161.381 7.185 160.212 7.758 159.076 8.312L158.695 8.49898C154.526 10.545 150.493 12.935 146.693 15.603ZM162.951 7.30199C163.191 7.70599 163.417 8.13598 163.607 8.56298C163.25 8.69998 162.86 8.88898 162.433 9.13698C162.218 8.77598 161.984 8.42399 161.754 8.08699C162.165 7.84599 162.567 7.58799 162.951 7.30199ZM165.252 9.312C165.313 9.32 165.374 9.33198 165.432 9.34798C165.365 9.38398 165.297 9.41998 165.229 9.45598C165.245 9.40898 165.253 9.361 165.252 9.312ZM123.332 116.867C123.33 116.866 123.327 116.866 123.325 116.865L123.324 116.862C123.327 116.863 123.329 116.865 123.332 116.867ZM126.338 118.566C126.144 118.706 125.949 118.844 125.753 118.981C125.748 118.964 125.746 118.946 125.739 118.93C125.938 118.809 126.138 118.687 126.338 118.566ZM127.366 117.611L127.362 117.615C127.362 117.613 127.361 117.611 127.361 117.609L127.366 117.611ZM114.516 59.448C113.984 59.942 113.467 60.448 112.964 60.964C112.41 59.979 111.861 58.987 111.271 58.024C111.828 57.673 112.39 57.321 112.951 56.97C113.451 57.808 113.984 58.629 114.516 59.448ZM116.103 58.001C116.11 58.01 116.118 58.016 116.127 58.022C115.661 58.414 115.207 58.815 114.761 59.223C114.294 58.388 113.823 57.552 113.325 56.736C113.79 56.446 114.253 56.157 114.712 55.871C115.15 56.597 115.639 57.294 116.103 58.001ZM117.808 56.675C117.515 56.898 117.223 57.125 116.933 57.358C116.729 57.522 116.528 57.69 116.327 57.857C115.918 57.117 115.528 56.36 115.09 55.636C115.585 55.328 116.074 55.024 116.554 54.727C116.944 55.392 117.379 56.033 117.808 56.675ZM119.777 55.263C119.196 55.656 118.622 56.066 118.054 56.492C117.69 55.82 117.329 55.145 116.926 54.497C117.508 54.136 118.073 53.786 118.615 53.452C118.977 54.07 119.377 54.668 119.777 55.263ZM121.45 54.187C120.978 54.475 120.51 54.776 120.046 55.085C119.706 54.457 119.365 53.827 118.987 53.222C119.449 52.937 119.892 52.664 120.311 52.406C120.665 53.015 121.057 53.602 121.45 54.187ZM123.395 53.072C122.836 53.373 122.281 53.69 121.73 54.02C121.395 53.398 121.056 52.776 120.682 52.178C121.256 51.825 121.776 51.505 122.232 51.225C122.586 51.859 122.989 52.468 123.395 53.072ZM125.116 52.202C124.642 52.429 124.17 52.666 123.701 52.913C123.351 52.264 122.996 51.617 122.595 51.002C122.602 50.998 122.609 50.993 122.615 50.989C123.084 50.702 123.498 50.447 123.851 50.23C124.242 50.905 124.681 51.554 125.116 52.202ZM127.199 51.28C126.594 51.526 125.992 51.789 125.394 52.068C125.017 51.372 124.642 50.671 124.221 50.002C124.584 49.778 124.857 49.609 125.012 49.511C125.265 49.352 125.512 49.196 125.763 49.038C126.201 49.808 126.707 50.542 127.199 51.28ZM129.608 50.393C128.892 50.629 128.179 50.888 127.47 51.171C127.036 50.377 126.615 49.571 126.127 48.809C126.724 48.433 127.315 48.062 127.899 47.695C127.901 47.703 127.9 47.711 127.904 47.718C128.407 48.646 129.027 49.512 129.608 50.393ZM131.052 49.948C130.656 50.061 130.26 50.182 129.865 50.309C129.864 50.305 129.865 50.301 129.862 50.296C129.344 49.359 128.86 48.391 128.264 47.501C128.258 47.492 128.248 47.488 128.24 47.481C128.54 47.293 128.834 47.109 129.131 46.923C129.743 47.947 130.406 48.946 131.052 49.948ZM133.07 49.424C133.073 49.428 133.076 49.43 133.078 49.433C132.494 49.563 131.911 49.707 131.329 49.868C130.728 48.807 130.141 47.731 129.505 46.689C129.948 46.412 130.387 46.138 130.824 45.866C131.529 47.076 132.316 48.246 133.07 49.424ZM135.181 48.554C134.427 47.228 133.703 45.871 132.877 44.588C133.25 44.357 133.619 44.128 133.989 43.899C134.731 45.205 135.581 46.458 136.391 47.722C136.483 47.867 136.703 47.734 136.618 47.585C135.875 46.279 135.161 44.942 134.349 43.676C134.685 43.468 135.018 43.263 135.351 43.057C135.348 43.095 135.352 43.135 135.376 43.178C136.136 44.534 137.02 45.83 137.859 47.139C137.951 47.283 138.171 47.15 138.086 47.002C137.317 45.65 136.582 44.265 135.735 42.961C135.708 42.919 135.673 42.896 135.637 42.881C135.973 42.674 136.307 42.468 136.641 42.262C137.387 43.577 138.243 44.839 139.058 46.111C139.15 46.255 139.37 46.123 139.286 45.974C138.538 44.659 137.82 43.314 137.002 42.041C137.156 41.946 137.312 41.85 137.466 41.755C137.644 41.646 137.81 41.547 137.969 41.452C138.684 42.689 139.488 43.882 140.258 45.083C140.35 45.227 140.57 45.095 140.485 44.946C139.78 43.707 139.099 42.441 138.339 41.233C138.706 41.016 139.027 40.822 139.291 40.626C140.37 42.469 141.543 44.27 142.678 46.077C142.813 46.292 143.033 46.159 142.906 45.939C141.823 44.074 140.763 42.176 139.62 40.344C139.876 40.092 140.043 39.818 140.091 39.468C140.123 39.228 140.093 38.975 140.011 38.696L140.339 38.609C140.356 38.649 140.373 38.69 140.402 38.735C142.102 41.368 143.824 43.982 145.495 46.636C145.681 46.932 145.93 46.783 145.752 46.481C144.163 43.782 142.538 41.096 140.807 38.49L140.804 38.488L141.497 38.302C142.69 39.433 143.876 40.578 145.055 41.733C146.703 44.281 148.369 46.814 149.987 49.384C150.173 49.68 150.422 49.531 150.244 49.229C149.067 47.23 147.869 45.238 146.624 43.281C149.801 46.436 152.916 49.665 155.938 52.937C153.387 51.549 150.711 50.444 147.991 49.679C143.331 48.369 138.309 48.302 133.312 49.379C133.318 49.351 133.316 49.32 133.298 49.287C132.605 48.069 131.935 46.827 131.19 45.637C131.636 45.359 132.078 45.085 132.518 44.811C133.268 46.138 134.132 47.409 134.954 48.691C135.046 48.836 135.266 48.703 135.181 48.554ZM102.342 74.887C101.156 72.845 99.9996 70.764 98.7366 68.769C98.7106 68.727 98.6816 68.694 98.6526 68.668C98.4236 67.549 98.2076 66.429 98.0046 65.307C98.2176 65.063 98.4507 64.836 98.6917 64.619C98.7017 64.652 98.7147 64.687 98.7357 64.724C99.9137 66.771 101.218 68.762 102.473 70.761C102.611 70.982 102.831 70.849 102.7 70.624C101.515 68.583 100.359 66.502 99.0956 64.507C99.0566 64.446 99.0136 64.408 98.9716 64.379C99.2576 64.143 99.5576 63.925 99.8726 63.731C100.067 64.074 100.249 64.407 100.418 64.733C100.423 64.744 100.429 64.754 100.436 64.766L100.44 64.772C100.588 65.018 100.907 65.097 101.153 64.948C101.275 64.874 101.356 64.759 101.388 64.631C101.436 64.579 101.506 64.514 101.592 64.44C102.296 65.649 103.082 66.817 103.835 67.994C103.927 68.138 104.147 68.005 104.062 67.856C103.362 66.625 102.685 65.368 101.93 64.167C102.319 63.868 102.876 63.473 103.56 63.007C104.291 64.28 105.119 65.505 105.91 66.741C106.002 66.885 106.222 66.752 106.137 66.603C105.408 65.322 104.706 64.012 103.914 62.767C104.23 62.554 104.569 62.328 104.928 62.091C105.657 63.361 106.483 64.584 107.273 65.816C107.365 65.961 107.585 65.828 107.5 65.679C106.774 64.402 106.073 63.097 105.285 61.855C105.764 61.541 106.275 61.208 106.81 60.863C107.482 61.998 108.22 63.099 108.931 64.208C109.023 64.352 109.243 64.219 109.158 64.071C108.505 62.922 107.872 61.752 107.178 60.626C107.716 60.279 108.276 59.921 108.851 59.555C109.521 60.683 110.254 61.778 110.96 62.881C111.053 63.025 111.273 62.892 111.188 62.743C110.539 61.602 109.909 60.44 109.221 59.32C109.77 58.971 110.331 58.616 110.899 58.259C111.488 59.249 112.125 60.215 112.75 61.182C106.845 67.324 103.054 74.882 102.119 82.374C102.009 82.007 101.902 81.639 101.794 81.272C101.931 80.514 101.804 79.742 101.424 79.16C101.287 78.95 101.152 78.744 101.017 78.539C100.232 75.676 99.5276 72.786 98.9086 69.883C99.9416 71.616 101.044 73.319 102.114 75.023C102.252 75.244 102.472 75.111 102.342 74.887ZM94.6976 87.66C94.7896 87.701 94.8996 87.701 95.0136 87.632C97.1676 86.318 99.3026 84.946 101.388 83.524C101.483 83.831 101.573 84.14 101.67 84.447C101.652 84.472 101.636 84.498 101.623 84.526C101.54 84.706 101.559 84.917 101.662 85.089C101.698 85.147 101.742 85.201 101.797 85.248C101.829 85.275 101.866 85.292 101.902 85.312C101.885 86.033 101.894 86.751 101.933 87.466C102.065 89.883 102.481 92.245 103.168 94.54C101.651 95.253 100.294 95.946 98.9836 96.658C97.3786 95.678 95.7716 94.713 94.1736 93.755C92.5216 92.765 90.8206 91.751 88.9436 91.13C90.8616 89.974 92.7796 88.817 94.6976 87.66ZM62.4556 93.14C62.1636 91.57 61.9886 90.005 62.0006 88.457C62.9546 89.787 63.9206 91.113 64.9166 92.409C65.1496 92.713 65.6556 92.431 65.4376 92.095C64.4056 90.495 63.3266 88.918 62.2366 87.359C62.1856 87.286 62.1227 87.239 62.0557 87.21C62.1387 86.15 62.3217 85.099 62.6317 84.062C63.8757 85.884 65.3146 87.595 66.6616 89.336C66.8926 89.636 67.4027 89.346 67.1757 89.026C65.7847 87.074 64.4586 85.035 62.9246 83.192C63.0456 82.863 63.1756 82.538 63.3246 82.213C63.6186 81.574 63.9656 80.999 64.3486 80.469C65.9046 82.89 67.5317 85.259 69.2437 87.574C69.4687 87.878 69.9746 87.586 69.7546 87.265C68.0736 84.816 66.4447 82.333 64.8657 79.817C65.4657 79.126 66.1466 78.547 66.8906 78.072C68.6846 80.832 70.4656 83.6 72.2776 86.347C72.4856 86.664 72.9666 86.375 72.7806 86.043C71.1786 83.182 69.4336 80.388 67.6216 77.651C68.2836 77.306 68.9866 77.038 69.7196 76.843C71.6416 79.705 73.7006 82.494 75.7646 85.25C75.9896 85.55 76.4846 85.269 76.2716 84.944C74.4366 82.15 72.5687 79.351 70.5977 76.646C71.4897 76.483 72.4176 76.421 73.3646 76.455C75.5106 79.109 77.7027 81.731 79.7747 84.443C79.9927 84.728 80.4766 84.45 80.2606 84.149C78.4106 81.572 76.5516 79.007 74.5516 76.546C75.9266 76.71 77.1746 77.043 78.3406 77.504C78.3526 77.536 78.3696 77.569 78.3906 77.6C79.7136 79.54 81.1456 81.405 82.6956 83.168C82.9306 83.435 83.3966 83.061 83.1846 82.775C82.0716 81.276 80.9876 79.762 79.9226 78.229C82.0166 79.33 83.8817 80.843 85.8167 82.52C87.7377 84.183 89.9236 85.431 92.4586 85.521C92.1936 85.676 91.9267 85.832 91.6677 85.983C90.1107 86.89 88.6416 87.746 87.3586 88.511C86.2396 89.179 85.1227 89.848 84.0037 90.517C81.6167 90.646 79.2356 91.269 76.9056 91.883C76.0176 92.116 75.0987 92.358 74.2047 92.564C70.1957 93.49 66.2576 93.776 62.4696 93.422C62.4756 93.333 62.4736 93.24 62.4556 93.14ZM106.009 101.127C105.995 101.119 105.982 101.11 105.969 101.101C105.972 101.093 105.976 101.085 105.979 101.077C105.989 101.094 105.999 101.11 106.009 101.127ZM109.874 100.188C107.484 96.231 106.148 91.948 105.902 87.457C105.381 77.942 110.526 67.647 119.33 60.589C127.81 53.791 138.158 51.218 147.011 53.707C152.781 55.329 158.344 58.65 162.677 63.061C164.384 64.798 165.884 66.729 167.134 68.8C170.798 74.866 172.205 81.961 171.095 88.781C169.742 97.103 164.969 104.447 157.657 109.459C149.831 114.824 140.161 116.81 131.126 114.905C127.231 114.086 124 112.897 121.247 111.272C116.491 108.464 112.558 104.631 109.874 100.188ZM120.719 112.166C123.571 113.85 126.905 115.079 130.912 115.923C140.223 117.884 150.186 115.841 158.245 110.316C165.793 105.142 170.721 97.553 172.121 88.948C173.269 81.885 171.814 74.539 168.023 68.262C166.731 66.123 165.181 64.128 163.418 62.332C158.96 57.795 153.233 54.377 147.292 52.707C138.117 50.128 127.421 52.772 118.681 59.779C109.619 67.043 104.325 77.671 104.865 87.513C105.12 92.176 106.506 96.622 108.984 100.725C110.343 102.974 112.012 105.07 113.936 106.964C112.061 105.427 110.122 103.971 108.137 102.582C107.846 102.149 107.562 101.713 107.294 101.268C104.693 96.962 103.238 92.299 102.97 87.41C102.453 77.969 107.062 67.824 115.139 60.286C115.2 60.28 115.255 60.234 115.263 60.172C116.009 59.481 116.781 58.811 117.583 58.168C126.812 50.77 138.074 47.971 147.71 50.68C153.99 52.445 160.044 56.059 164.759 60.859C166.617 62.75 168.249 64.851 169.611 67.105C173.598 73.707 175.129 81.431 173.922 88.854C172.448 97.912 167.254 105.905 159.297 111.36C150.78 117.199 140.256 119.359 130.423 117.287C127.111 116.589 124.249 115.639 121.724 114.415C121.439 114.075 121.148 113.752 120.864 113.444C119.689 112.169 118.459 110.959 117.193 109.792C118.311 110.646 119.488 111.44 120.719 112.166ZM188.714 30.463C188.787 30.415 188.844 30.361 188.895 30.305C191.167 33.71 193.379 37.156 195.525 40.709C195.981 41.463 196.433 42.223 196.882 42.985C198.025 44.93 199.159 46.885 200.294 48.842C202.246 52.209 204.265 55.69 206.313 59.081C210.327 65.726 213.812 70.936 217.276 75.473C217.479 75.742 217.678 76.005 217.873 76.262C218.469 77.049 219.03 77.794 219.484 78.51C215.982 80.869 212.146 83.004 208.429 85.069C205.731 86.568 202.941 88.118 200.309 89.738L199.452 90.267C193.366 94.011 187.073 97.884 181.164 102.184C163.602 114.961 144.446 126.047 125.92 136.768C117.43 141.682 108.652 146.762 100.148 151.936C98.0936 153.185 95.4926 155.063 95.0616 157.596C94.0156 156.123 92.8786 154.246 92.1816 153.095C91.8596 152.563 91.5936 152.126 91.4156 151.849C88.0986 146.718 84.8077 141.518 81.5557 136.297C81.7167 135.813 81.8206 135.307 81.8876 134.777C81.9326 134.609 81.9786 134.441 82.0236 134.273C82.0966 134.282 82.1696 134.293 82.2426 134.303C82.4176 134.326 82.5926 134.35 82.7686 134.37C82.9266 134.386 83.0846 134.399 83.2426 134.412C83.1456 134.558 83.1196 134.748 83.2386 134.944C83.5726 135.498 84.4046 135.029 84.1786 134.481C84.1826 134.481 84.1866 134.482 84.1906 134.482C84.2456 134.484 84.2996 134.487 84.3536 134.49C86.6616 134.604 89.0136 134.456 91.3576 134.213C94.7376 133.922 98.1256 133.586 101.503 133.989C107.663 134.723 114.42 136.609 120.14 133.593C120.58 133.445 121.016 133.279 121.448 133.088C123.265 132.286 124.596 131.221 125.406 129.924C126.434 128.277 126.525 126.267 125.64 124.802L125.635 124.793C124.926 123.627 123.831 123.005 122.583 122.66C122.83 122.428 123.042 122.167 123.217 121.883C125.135 120.697 127.014 119.438 128.764 118.023C128.779 118.011 128.785 117.995 128.798 117.983C129.26 118.095 129.729 118.203 130.209 118.304C140.318 120.434 151.134 118.215 159.884 112.217C168.078 106.599 173.428 98.361 174.947 89.021C176.194 81.354 174.614 73.38 170.5 66.568C169.096 64.245 167.414 62.079 165.5 60.13C163.089 57.677 160.337 55.525 157.385 53.759C157.388 53.756 157.392 53.754 157.395 53.751C157.607 53.557 157.621 53.228 157.427 53.017C156.583 52.096 155.729 51.18 154.87 50.267C154.895 50.255 154.919 50.249 154.944 50.235C166.305 43.905 177.84 37.61 188.714 30.463ZM219.991 84.248C219.311 85.67 217.246 87.065 215.739 88.083C215.539 88.218 215.348 88.347 215.168 88.47C181.836 111.369 144.056 137.323 103.891 156.963C103.03 157.385 102.265 157.927 101.525 158.451C99.8807 159.616 98.5826 160.536 96.9616 159.716C96.7176 159.592 96.4067 159.298 96.0587 158.893C96.0657 158.847 96.0686 158.799 96.0626 158.75C95.7376 156.156 98.5466 154.125 100.688 152.823C109.182 147.656 117.956 142.578 126.441 137.668C144.989 126.933 164.169 115.833 181.774 103.024C187.652 98.747 193.927 94.886 199.996 91.151L200.854 90.623C203.466 89.015 206.246 87.47 208.934 85.977C212.649 83.912 216.483 81.778 220.006 79.41C220.728 80.837 220.935 82.277 219.991 84.248ZM-67.2024 296.561C-61.5244 292.1 -55.7384 287.553 -49.6914 283.403C-49.1734 283.635 -48.5294 283.165 -48.5244 282.615C-44.1614 279.675 -39.6614 276.951 -34.9634 274.629C-34.8944 274.595 -34.8384 274.548 -34.7924 274.493C-34.4714 274.373 -34.1694 274.213 -33.8804 274.05C-31.8874 272.927 -29.9934 271.601 -28.2514 270.107C-28.1114 269.987 -28.0514 269.808 -28.0754 269.638C-28.0234 269.573 -27.9684 269.512 -27.9224 269.439C-27.3564 268.534 -27.1464 266.817 -29.3644 263.785C-29.3974 263.74 -29.4374 263.704 -29.4794 263.673C-4.39737 242.762 22.8186 221.035 40.4416 211.339C41.1316 210.96 41.8246 210.581 42.5206 210.2C52.0496 204.993 61.9026 199.609 67.2966 190.25C68.6976 187.82 69.7426 185.186 70.7526 182.638L81.1226 156.483C82.3816 153.308 83.1966 150.268 83.9846 147.328C84.3116 146.108 84.6356 144.906 84.9836 143.716C86.8276 146.631 88.6807 149.533 90.5427 152.413C90.7187 152.684 90.9777 153.112 91.2927 153.633C93.2287 156.828 95.2226 160.001 96.4926 160.643C98.6726 161.745 100.428 160.501 102.125 159.298C102.831 158.798 103.562 158.281 104.347 157.897C144.581 138.223 182.394 112.245 215.757 89.326C215.934 89.204 216.123 89.077 216.32 88.944C217.926 87.859 220.126 86.373 220.928 84.696C222.298 81.835 221.494 79.814 220.526 78.212C220.022 77.376 219.38 76.53 218.701 75.635C218.507 75.379 218.309 75.119 218.105 74.845C214.661 70.335 211.196 65.156 207.203 58.544C205.159 55.161 203.142 51.684 201.193 48.321C200.056 46.363 198.921 44.405 197.777 42.458C197.327 41.693 196.872 40.93 196.414 40.172C194.044 36.249 191.595 32.456 189.076 28.709C189.114 28.576 189.101 28.429 189.025 28.301L189.023 28.298C188.936 28.154 188.789 28.068 188.634 28.052C184.893 22.512 180.998 17.061 176.972 11.428L176.771 11.147C175.493 9.35799 173.938 7.42698 171.677 7.16298C170.088 6.97798 168.623 7.66298 167.138 8.44298C166.93 8.55198 166.722 8.66397 166.514 8.77397C166.119 8.42797 165.518 8.16597 164.622 8.29097C164.168 7.23697 162.682 4.42699 161.296 4.18099C159.506 3.86299 157.625 5.17598 156.115 6.23098C155.894 6.38498 155.684 6.532 155.486 6.665C153.433 8.041 151.301 9.35698 149.152 10.577C148.96 10.686 148.73 10.803 148.479 10.93C147.038 11.662 144.86 12.767 145.186 14.696C145.247 15.055 145.403 15.361 145.541 15.631L145.896 16.327C145.868 16.453 145.885 16.59 145.956 16.708C145.963 16.719 145.971 16.731 145.979 16.742C146.036 16.822 146.113 16.879 146.197 16.916L146.938 18.365C146.697 18.558 146.475 18.764 146.283 18.986C146.172 19.055 146.111 19.142 146.088 19.235C145.81 19.626 145.623 20.065 145.58 20.573C145.575 20.623 145.577 20.668 145.577 20.714C141.41 23.239 137.299 25.8 133.258 28.355C132.018 27.713 129.44 27.193 125.72 26.495C123.98 26.168 122.336 25.86 121.091 25.548C120.729 25.457 120.278 25.344 119.804 25.406C119.314 25.47 118.892 25.713 118.552 25.907C117.097 26.738 115.608 27.562 114.168 28.359C109.803 30.774 105.289 33.272 101.148 36.3C100.589 36.708 99.8946 37.216 99.4326 37.937C99.0206 38.579 98.8376 39.324 98.6766 39.981L95.6346 52.419L93.4696 53.805C93.4016 53.744 93.2856 53.551 93.2116 53.43C92.9996 53.061 92.7247 52.616 92.2277 52.549C91.9027 52.506 91.6246 52.675 91.4406 52.788C91.4066 52.809 91.3736 52.829 91.3436 52.845C89.9076 53.607 88.5436 54.505 87.2236 55.374C86.6736 55.737 86.1226 56.1 85.5656 56.455C85.1446 55.787 84.5726 54.937 83.6686 54.975C83.2486 54.993 82.8846 55.157 82.5776 55.309C82.1636 55.513 81.7607 55.741 81.3737 55.974C81.7537 55.561 82.0836 55.123 82.3376 54.667C83.0276 53.43 83.1476 52.129 82.6846 50.905C82.1036 49.361 80.4006 48.647 79.0056 48.495C78.2346 48.411 77.4666 48.447 76.7236 48.482C76.1016 48.512 75.5136 48.54 74.9246 48.503C73.2386 48.397 71.5256 47.976 69.8706 47.569C68.5696 47.249 67.2256 46.918 65.8876 46.737C62.3166 46.251 59.0776 47.396 55.9446 48.503C52.7696 49.625 36.8806 55.443 36.0146 59.738L35.3726 62.923C33.5036 72.195 31.3856 82.705 29.4026 91.764C27.8356 98.925 27.4786 106.562 27.2676 113.158C27.2246 114.484 27.1866 115.799 27.1476 117.104C26.7496 130.706 26.3736 143.553 21.6986 157.064C19.0046 164.853 13.8716 172.734 7.24362 179.257C1.83962 184.575 -4.53536 187.72 -11.2834 191.05C-12.2574 191.53 -13.2384 192.014 -14.2234 192.508C-24.5984 197.711 -34.9314 203.16 -45.1554 208.808C-45.3914 208.451 -45.7394 208.181 -46.1674 208.018C-46.6594 207.705 -47.5674 207.463 -48.1004 207.63C-48.2064 207.588 -48.3254 207.579 -48.4424 207.614C-50.7384 208.31 -52.9684 209.19 -54.3124 210.783C-58.4594 212.939 -61.6074 215.423 -64.9394 218.051C-67.3874 219.982 -69.9194 221.98 -72.8914 223.839C-73.1034 223.972 -73.1764 224.23 -73.0944 224.456C-80.0094 229.101 -86.9964 233.637 -94.0374 238.089V239.165C-86.7574 234.567 -79.5174 229.903 -72.5854 224.791C-72.5014 224.786 -72.4174 224.768 -72.3404 224.72C-71.3834 224.121 -70.4764 223.509 -69.6004 222.891C-69.7374 224.023 -69.8244 225.152 -69.8624 226.275C-70.6134 230.017 -70.3094 233.685 -69.3494 237.465C-67.8924 243.201 -66.1904 248.905 -64.3884 254.542C-61.2874 264.248 -57.4124 274.981 -50.4524 282.667C-56.4594 286.801 -62.2054 291.314 -67.8444 295.745C-70.6684 297.965 -73.5904 300.26 -76.4894 302.465C-78.0364 303.641 -79.6344 304.831 -81.2934 305.976H-79.4914C-78.2494 305.089 -77.0384 304.187 -75.8604 303.291C-72.9544 301.082 -70.0304 298.784 -67.2024 296.561Z" fill="black"/>
<path d="M118.315 94.7932C116.639 92.0162 115.701 89.0111 115.528 85.8601C115.163 79.1791 118.78 71.9481 124.968 66.9871C130.927 62.2101 138.193 60.4011 144.407 62.1481C148.462 63.2871 152.373 65.6231 155.418 68.7231C156.617 69.9421 157.671 71.2992 158.549 72.7542C161.121 77.0122 162.109 81.9942 161.33 86.7802C160.38 92.6242 157.028 97.7811 151.891 101.303C146.391 105.073 139.595 106.469 133.246 105.131C130.508 104.554 128.238 103.719 126.305 102.579C122.963 100.606 120.201 97.9141 118.316 94.7941L118.315 94.7932ZM125.778 103.473C127.809 104.672 130.182 105.547 133.032 106.148C139.657 107.543 146.745 106.09 152.479 102.159C157.851 98.4761 161.359 93.0741 162.355 86.9471C163.174 81.9181 162.137 76.6851 159.438 72.2161C158.518 70.6931 157.415 69.2721 156.159 67.9941C152.989 64.7671 148.915 62.3361 144.688 61.1471C138.152 59.3111 130.538 61.1911 124.319 66.1761C117.873 71.3431 114.107 78.9081 114.491 85.9171C114.673 89.2391 115.661 92.4061 117.427 95.3301C119.4 98.5971 122.288 101.414 125.778 103.473Z" fill="black"/>
<path d="M152.736 34.1071C152.78 33.8161 152.84 33.5131 152.978 33.2721C153.216 32.8531 153.702 32.5761 154.179 32.3261C154.993 31.9021 155.865 31.5181 156.723 31.5751C157.6 31.6331 158.458 32.1831 158.963 33.0161C159.429 33.7881 159.601 34.7801 159.447 35.8101C159.337 36.5491 159.074 37.1661 158.686 37.5971C158.145 38.1981 157.265 38.5671 156.071 38.6941C155.531 38.7521 155.138 38.7411 154.795 38.6581C154.016 38.4701 153.295 37.7891 152.949 36.9201C152.641 36.1501 152.569 35.2041 152.736 34.1071ZM152.297 37.9341C152.831 38.8191 153.653 39.4511 154.55 39.6681C155.145 39.8111 155.735 39.7751 156.181 39.7281C157.637 39.5721 158.739 39.0891 159.458 38.2931C159.983 37.7091 160.334 36.9041 160.475 35.9631C160.664 34.6951 160.443 33.4571 159.848 32.4721C159.173 31.3591 158.002 30.6191 156.792 30.5381C155.678 30.4641 154.648 30.9111 153.699 31.4051C153.111 31.7121 152.452 32.0951 152.075 32.7581C151.853 33.1481 151.766 33.5801 151.709 33.9511C151.514 35.2331 151.606 36.3621 151.984 37.3061C152.071 37.5221 152.176 37.7341 152.297 37.9341Z" fill="black"/>
<path d="M153.991 34.4949C154.019 34.3149 154.055 34.1279 154.134 33.9899C154.272 33.7469 154.59 33.5669 154.877 33.4169C155.404 33.1419 155.966 32.8919 156.504 32.9279C157.043 32.9639 157.57 33.3039 157.884 33.8209C158.178 34.3079 158.286 34.9379 158.188 35.5939C158.14 35.9189 158.018 36.3769 157.716 36.7129C157.379 37.0869 156.821 37.3179 156.058 37.3989C155.713 37.4359 155.465 37.4289 155.253 37.3779C154.781 37.2639 154.338 36.8429 154.124 36.3069C153.928 35.8149 153.883 35.2049 153.991 34.4949ZM153.383 37.1409C153.767 37.7769 154.36 38.2309 155.01 38.3879C155.436 38.4909 155.852 38.4659 156.168 38.4319C157.193 38.3219 157.974 37.9779 158.487 37.4089C158.864 36.9899 159.116 36.4159 159.215 35.7479C159.349 34.8529 159.192 33.9779 158.769 33.2779C158.286 32.4809 157.444 31.9499 156.573 31.8919C155.779 31.8389 155.057 32.1509 154.397 32.4959C153.979 32.7139 153.51 32.9869 153.23 33.4759C153.068 33.7639 153.004 34.0729 152.964 34.3389C152.828 35.2349 152.894 36.0259 153.159 36.6919C153.222 36.8469 153.297 36.9979 153.383 37.1409Z" fill="black"/>
<path d="M118.315 94.7932C116.639 92.0162 115.701 89.0111 115.528 85.8601C115.163 79.1811 118.78 71.9481 124.969 66.9871C130.927 62.2101 138.193 60.4011 144.407 62.1481C148.462 63.2881 152.373 65.6231 155.418 68.7231C156.617 69.9431 157.671 71.2992 158.549 72.7542C161.121 77.0122 162.109 81.9942 161.33 86.7802C160.38 92.6242 157.028 97.7811 151.892 101.303C146.391 105.073 139.595 106.469 133.246 105.131C130.508 104.554 128.238 103.719 126.305 102.579C122.963 100.606 120.201 97.9151 118.316 94.7941L118.315 94.7932ZM125.778 103.473C127.809 104.673 130.182 105.547 133.032 106.148C139.657 107.543 146.745 106.09 152.479 102.159C157.851 98.4761 161.359 93.0741 162.355 86.9471C163.174 81.9181 162.137 76.6851 159.438 72.2161C158.518 70.6931 157.415 69.2721 156.159 67.9941C152.989 64.7671 148.915 62.3361 144.688 61.1471C138.152 59.3111 130.538 61.1911 124.319 66.1761C117.873 71.3431 114.107 78.9081 114.491 85.9171C114.673 89.2391 115.661 92.4061 117.427 95.3301C119.4 98.5971 122.288 101.414 125.778 103.473Z" fill="black"/>
<path d="M159.447 35.8101C159.337 36.5491 159.074 37.1661 158.686 37.5971C158.145 38.1981 157.265 38.5671 156.071 38.6951C155.531 38.7521 155.138 38.7411 154.795 38.6581C154.016 38.4701 153.295 37.7891 152.949 36.9201C152.641 36.1501 152.569 35.2041 152.736 34.1071C152.78 33.8161 152.84 33.5141 152.978 33.2721C153.216 32.8541 153.702 32.5761 154.179 32.3271C154.993 31.9021 155.865 31.5181 156.723 31.5751C157.6 31.6331 158.458 32.1831 158.963 33.0161C159.429 33.7881 159.601 34.7801 159.447 35.8101ZM156.792 30.5381C155.678 30.4641 154.648 30.9111 153.699 31.4051C153.111 31.7121 152.452 32.0951 152.075 32.7581C151.853 33.1481 151.766 33.5801 151.709 33.9511C151.514 35.2331 151.606 36.3621 151.984 37.3061C152.071 37.5221 152.176 37.7341 152.297 37.9341C152.831 38.8191 153.653 39.4511 154.55 39.6681C155.145 39.8121 155.735 39.7751 156.181 39.7281C157.637 39.5721 158.739 39.0891 159.458 38.2931C159.983 37.7091 160.334 36.9041 160.475 35.9631C160.664 34.6951 160.443 33.4571 159.848 32.4721C159.173 31.3601 158.002 30.6191 156.792 30.5381Z" fill="black"/>
</g>
<defs>
<clipPath id="clip0_4_1041">
<rect width="222" height="162" fill="white"/>
</clipPath>
</defs>
</svg>
